<?xml version="1.0" standalone="no"?>
<!DOCTYPE svg PUBLIC "-//W3C//DTD SVG 20010904//EN"
 "http://www.w3.org/TR/2001/REC-SVG-20010904/DTD/svg10.dtd">
<svg version="1.0" xmlns="http://www.w3.org/2000/svg"
 width="30.000000pt" height="30.000000pt" viewBox="0 0 30.000000 30.000000"
 preserveAspectRatio="xMidYMid meet">

<g transform="translate(0.000000,30.000000) scale(0.100000,-0.100000)"
fill="#000000" stroke="none">
<path d="M115 246 c-38 -17 -67 -49 -70 -78 -2 -13 -6 -31 -10 -40 -5 -13 -2
-18 9 -18 10 0 16 -9 16 -25 0 -26 6 -30 29 -16 9 6 20 2 32 -10 25 -25 39
-24 39 4 0 12 9 37 21 56 18 30 24 33 55 28 39 -7 43 3 18 51 -29 59 -77 75
-139 48z m95 -48 c0 -13 -23 -5 -28 10 -2 7 2 10 12 6 9 -3 16 -11 16 -16z"/>
</g>
</svg>
