<?xml version="1.0" standalone="no"?>
<!DOCTYPE svg PUBLIC "-//W3C//DTD SVG 20010904//EN"
 "http://www.w3.org/TR/2001/REC-SVG-20010904/DTD/svg10.dtd">
<svg version="1.0" xmlns="http://www.w3.org/2000/svg"
 width="50.000000pt" height="50.000000pt" viewBox="0 0 50.000000 50.000000"
 preserveAspectRatio="xMidYMid meet">

<g transform="translate(0.000000,50.000000) scale(0.100000,-0.100000)"
fill="#000000" stroke="none">
<path d="M130 399 c-109 -86 -143 -120 -106 -106 14 6 16 -8 16 -128 l0 -135
210 0 210 0 0 135 c0 120 2 134 16 128 38 -14 3 21 -106 106 -63 50 -117 91
-120 91 -3 0 -57 -41 -120 -91z m170 -112 c10 2 20 -12 28 -37 18 -58 15 -86
-13 -117 -25 -28 -25 -28 -16 -3 11 30 -15 92 -29 69 -11 -17 -25 33 -16 58 4
11 -4 7 -19 -10 -27 -30 -32 -68 -15 -112 11 -29 2 -27 -37 8 -42 38 -24 96
49 162 l43 39 5 -29 c4 -19 11 -29 20 -28z"/>
</g>
</svg>
