<?xml version="1.0" standalone="no"?>
<!DOCTYPE svg PUBLIC "-//W3C//DTD SVG 20010904//EN"
 "http://www.w3.org/TR/2001/REC-SVG-20010904/DTD/svg10.dtd">
<svg version="1.0" xmlns="http://www.w3.org/2000/svg"
 width="30.000000pt" height="30.000000pt" viewBox="0 0 30.000000 30.000000"
 preserveAspectRatio="xMidYMid meet">

<g transform="translate(0.000000,30.000000) scale(0.100000,-0.100000)"
fill="#000000" stroke="none">
<path d="M87 202 c-21 -42 -38 -87 -37 -99 0 -24 54 -83 76 -83 18 0 17 10 -1
34 -19 25 -19 50 0 66 12 10 15 9 15 -5 0 -9 11 -30 24 -46 13 -15 26 -34 29
-41 7 -21 46 20 53 57 6 34 -11 115 -25 115 -5 0 -12 -8 -15 -17 -5 -13 -13
-5 -34 36 -15 30 -31 56 -37 57 -5 2 -27 -32 -48 -74z"/>
</g>
</svg>
