<?xml version="1.0" standalone="no"?>
<!DOCTYPE svg PUBLIC "-//W3C//DTD SVG 20010904//EN"
 "http://www.w3.org/TR/2001/REC-SVG-20010904/DTD/svg10.dtd">
<svg version="1.0" xmlns="http://www.w3.org/2000/svg"
 width="24.000000pt" height="24.000000pt" viewBox="0 0 24.000000 24.000000"
 preserveAspectRatio="xMidYMid meet">

<g transform="translate(0.000000,24.000000) scale(0.100000,-0.100000)"
fill="#000000" stroke="none">
<path d="M41 203 c-20 -16 -22 -26 -19 -98 l3 -80 43 -3 c25 -2 42 1 42 7 0 6
-6 11 -14 11 -16 0 -17 51 -1 63 6 4 5 10 -5 16 -8 6 -11 14 -6 18 5 4 11 2
13 -5 8 -21 23 -2 23 28 0 18 -8 34 -22 44 -28 20 -31 20 -57 -1z m19 -33 c0
-5 -4 -10 -10 -10 -5 0 -10 5 -10 10 0 6 5 10 10 10 6 0 10 -4 10 -10z m40 0
c0 -5 -4 -10 -10 -10 -5 0 -10 5 -10 10 0 6 5 10 10 10 6 0 10 -4 10 -10z
m-40 -40 c0 -5 -4 -10 -10 -10 -5 0 -10 5 -10 10 0 6 5 10 10 10 6 0 10 -4 10
-10z m0 -40 c0 -5 -4 -10 -10 -10 -5 0 -10 5 -10 10 0 6 5 10 10 10 6 0 10 -4
10 -10z m0 -40 c0 -5 -4 -10 -10 -10 -5 0 -10 5 -10 10 0 6 5 10 10 10 6 0 10
-4 10 -10z"/>
<path d="M154 153 c-3 -13 -10 -21 -14 -18 -11 7 -40 -40 -40 -63 0 -10 8 -27
19 -36 17 -16 19 -15 24 14 4 16 11 30 17 30 6 0 13 -14 17 -30 5 -29 7 -30
24 -14 11 9 19 30 19 45 0 30 -15 47 -23 27 -3 -7 -6 -4 -6 8 -1 11 -8 29 -16
40 -14 19 -15 19 -21 -3z"/>
</g>
</svg>
