<?xml version="1.0" standalone="no"?>
<!DOCTYPE svg PUBLIC "-//W3C//DTD SVG 20010904//EN"
 "http://www.w3.org/TR/2001/REC-SVG-20010904/DTD/svg10.dtd">
<svg version="1.0" xmlns="http://www.w3.org/2000/svg"
 width="64.000000pt" height="64.000000pt" viewBox="0 0 64.000000 64.000000"
 preserveAspectRatio="xMidYMid meet">

<g transform="translate(0.000000,64.000000) scale(0.100000,-0.100000)"
fill="#000000" stroke="none">
<path d="M219 572 c-76 -39 -114 -102 -114 -187 0 -57 3 -67 47 -131 67 -97
156 -209 167 -209 14 0 179 215 202 263 45 92 0 212 -100 264 -71 37 -131 37
-202 0z m190 -20 c19 -9 48 -34 65 -55 25 -31 31 -49 34 -100 3 -56 0 -67 -30
-113 -44 -68 -151 -204 -159 -201 -10 3 -127 153 -160 205 -103 163 74 350
250 264z"/>
<path d="M297 462 c-25 -27 -21 -32 23 -32 44 0 49 8 22 33 -23 21 -25 21 -45
-1z"/>
<path d="M273 405 c-16 -18 -17 -65 -2 -65 7 0 9 -11 6 -30 l-6 -30 49 0 50 0
-6 30 c-4 19 -2 30 5 30 16 0 14 49 -3 66 -19 18 -77 18 -93 -1z m72 -35 c0
-18 -6 -26 -23 -28 -13 -2 -25 3 -28 12 -10 26 4 48 28 44 17 -2 23 -10 23
-28z"/>
<path d="M310 370 c0 -5 5 -10 10 -10 6 0 10 5 10 10 0 6 -4 10 -10 10 -5 0
-10 -4 -10 -10z"/>
<path d="M224 385 c-8 -19 2 -45 16 -45 5 0 10 14 10 30 0 31 -16 41 -26 15z"/>
<path d="M390 370 c0 -21 4 -30 13 -27 6 2 12 14 12 27 0 13 -6 25 -12 28 -9
2 -13 -7 -13 -28z"/>
</g>
</svg>
