<?xml version="1.0" standalone="no"?>
<!DOCTYPE svg PUBLIC "-//W3C//DTD SVG 20010904//EN"
 "http://www.w3.org/TR/2001/REC-SVG-20010904/DTD/svg10.dtd">
<svg version="1.0" xmlns="http://www.w3.org/2000/svg"
 width="64.000000pt" height="64.000000pt" viewBox="0 0 64.000000 64.000000"
 preserveAspectRatio="xMidYMid meet">

<g transform="translate(0.000000,64.000000) scale(0.100000,-0.100000)"
fill="#000000" stroke="none">
<path d="M219 572 c-76 -39 -114 -102 -114 -187 0 -57 3 -67 47 -131 67 -97
156 -209 167 -209 14 0 179 215 202 263 45 92 0 212 -100 264 -71 37 -131 37
-202 0z m190 -20 c19 -9 48 -34 65 -55 25 -31 31 -49 34 -100 3 -56 0 -67 -30
-113 -44 -68 -151 -204 -159 -201 -10 3 -127 153 -160 205 -103 163 74 350
250 264z"/>
<path d="M286 456 c-57 -76 -58 -136 -1 -163 28 -13 39 -14 63 -4 28 12 52 47
52 76 0 24 -33 85 -46 85 -7 0 -16 9 -19 20 -9 28 -19 25 -49 -14z m61 -131
c-3 -25 -44 -33 -53 -11 -4 9 -1 30 7 47 l12 31 19 -23 c10 -13 17 -33 15 -44z"/>
</g>
</svg>
